<svg xmlns="http://www.w3.org/2000/svg" xml:space="preserve" style="fill-rule:evenodd;clip-rule:evenodd;stroke-linejoin:round;stroke-miterlimit:2" viewBox="0 0 600 600">
  <filter xmlns="http://www.w3.org/2000/svg" id="a" width="100%" height="100%" x="0%" y="0%">
    <feTurbulence xmlns="http://www.w3.org/2000/svg" baseFrequency=".005" type="fractalNoise"/>
  </filter>
    <path d="M0 0h600v600H0z" style="fill:#30a9b3;fill-rule:nonzero"/>
    <path d="M0 0h600v600H0z" opacity=".5" style="filter:url(#a)"/>
    <rect x="15%" y="15%"  width="70%" height="70%" stroke="black" fill="black" stroke-width="5"/>
    <path d="M7.888 18.148c0 1.133.162 1.892.487 2.28.325.387.916.581 1.773.581.886 0 2.024-.447 3.412-1.341l.886 1.475c-2.599 2.175-4.741 3.263-6.425 3.263-1.684 0-3.014-.402-3.988-1.207-.975-.834-1.463-2.294-1.463-4.38V7.107H.355L0 5.453l2.57-.804V2.458L7.888 0v4.917l5.229-.402-.488 2.905-4.741-.179v10.907Z" style="fill:#fff;fill-rule:nonzero" transform="translate(150 135) scale(10)"/>
    <rect x="25%" y="75%"  width="30%" height="2%" stroke="white" fill="white" stroke-width="5"/>
</svg>