<?xml version="1.0" encoding="utf-8"?>
<svg xmlns="http://www.w3.org/2000/svg" xml:space="preserve" viewBox="0 0 700 700">
    <rect x="0" y="0" width="100%" height="100%" fill="#239dad" rx="18%" ry="18%"/>
    <path d="M367.7 477.4c0 25.2 3.6 42.1 10.9 50.7 7.3 8.6 20.7 12.9 40.2 12.9 19.5 0 44.9-9.9 76-29.8l19.9 32.8c-58.3 48.4-106.3 72.5-144.1 72.5s-67.6-9.1-89.4-27.3c-21.9-18.2-32.8-50.5-32.8-96.9V232h-49.7l-8-36.8 57.6-17.9v-48.7L367.5 74v109.3l117.2-8.9L474 239l-106.3-4v242.4z" fill="#ffffff"/>
</svg>
